<svg width="44" height="44" viewBox="0 0 44 44" fill="none" xmlns="http://www.w3.org/2000/svg">
<path d="M44 43.2575H43.1334C41.9852 43.2575 40.902 42.721 40.2738 41.8468C34.1211 33.4019 27.9685 24.957 21.7942 16.5122C20.386 14.5848 17.2014 14.8033 16.1398 16.9096C11.677 25.6922 7.21418 34.4749 2.72969 43.2575H0C5.97932 31.4944 11.9803 19.751 22.0108 0C27.0586 9.89539 35.5293 26.5665 44 43.2575ZM20.646 12.558C20.646 11.7036 19.8877 11.0081 18.9562 11.0081C18.0246 11.0081 17.2664 11.7036 17.2664 12.558C17.2664 13.4124 18.0246 14.1079 18.9562 14.1079C19.8877 14.1079 20.646 13.4124 20.646 12.558Z" fill="#202020"/>
</svg>
